<?xml version="1.0" encoding="UTF-8" standalone="no"?>
<!DOCTYPE svg PUBLIC "-//W3C//DTD SVG 1.1//EN" "http://www.w3.org/Graphics/SVG/1.1/DTD/svg11.dtd">
<svg version="1.1" xmlns="http://www.w3.org/2000/svg" xmlns:xlink="http://www.w3.org/1999/xlink" preserveAspectRatio="xMidYMid meet" viewBox="0 0 640 640" width="640" height="640"><defs><path d="M33.33 215.26C33.33 240.52 33.33 442.74 33.33 468.01C33.33 553.86 104.04 623.69 190.97 623.69C216.56 623.69 421.31 623.69 446.9 623.69C533.83 623.69 604.54 553.86 604.54 468.01C604.54 442.74 604.54 240.52 604.54 215.26C604.54 129.4 533.83 59.57 446.9 59.57C395.73 59.57 216.56 59.57 190.97 59.57C104.04 59.57 33.33 129.4 33.33 215.26ZM190.97 573.62C131.99 573.65 84 526.25 84 468.01C84 442.74 84 240.52 84 215.26C84 157.01 131.99 109.61 190.97 109.61C216.56 109.61 421.31 109.61 446.9 109.61C505.88 109.61 553.84 157.01 553.84 215.26C553.84 232.11 553.84 316.36 553.84 468.01C521.87 538.44 486.21 573.62 446.9 573.62C421.31 573.62 216.56 573.62 190.97 573.62Z" id="a316adomxT"></path><path d="M33.33 215.26C33.33 240.52 33.33 442.74 33.33 468.01C33.33 553.86 104.04 623.69 190.97 623.69C216.56 623.69 421.31 623.69 446.9 623.69C533.83 623.69 604.54 553.86 604.54 468.01C604.54 442.74 604.54 240.52 604.54 215.26C604.54 129.4 533.83 59.57 446.9 59.57C395.73 59.57 216.56 59.57 190.97 59.57C104.04 59.57 33.33 129.4 33.33 215.26ZM190.97 573.62C131.99 573.65 84 526.25 84 468.01C84 442.74 84 240.52 84 215.26C84 157.01 131.99 109.61 190.97 109.61C216.56 109.61 421.31 109.61 446.9 109.61C505.88 109.61 553.84 157.01 553.84 215.26C553.84 232.11 553.84 316.36 553.84 468.01C521.87 538.44 486.21 573.62 446.9 573.62C421.31 573.62 216.56 573.62 190.97 573.62Z" id="a5spIX9t8"></path><path d="M325.12 487C406.27 487 472.28 421.78 472.28 341.63C472.28 261.49 406.27 196.26 325.12 196.26C243.94 196.26 177.93 261.49 177.93 341.63C177.93 421.78 243.94 487 325.12 487ZM325.12 246.33C378.32 246.33 421.62 289.09 421.62 341.63C421.62 394.17 378.32 436.93 325.12 436.93C271.89 436.93 228.59 394.17 228.59 341.63C228.59 289.09 271.89 246.33 325.12 246.33Z" id="ew67skXlt"></path><path d="M325.12 487C406.27 487 472.28 421.78 472.28 341.63C472.28 261.49 406.27 196.26 325.12 196.26C243.94 196.26 177.93 261.49 177.93 341.63C177.93 421.78 243.94 487 325.12 487ZM325.12 246.33C378.32 246.33 421.62 289.09 421.62 341.63C421.62 394.17 378.32 436.93 325.12 436.93C271.89 436.93 228.59 394.17 228.59 341.63C228.59 289.09 271.89 246.33 325.12 246.33Z" id="b2eTJtl8SD"></path><path d="M435.14 190.56C435.14 200.2 439.13 209.65 446.05 216.49C452.92 223.3 462.51 227.24 472.28 227.24C482.08 227.24 491.65 223.3 498.58 216.49C505.51 209.65 509.46 200.2 509.46 190.56C509.46 180.88 505.51 171.4 498.58 164.59C491.68 157.74 482.08 153.84 472.28 153.84C462.51 153.84 452.95 157.74 446.05 164.59C439.13 171.4 435.14 180.88 435.14 190.56Z" id="k1I31uwfXW"></path><path d="M435.14 190.56C435.14 200.2 439.13 209.65 446.05 216.49C452.92 223.3 462.51 227.24 472.28 227.24C482.08 227.24 491.65 223.3 498.58 216.49C505.51 209.65 509.46 200.2 509.46 190.56C509.46 180.88 505.51 171.4 498.58 164.59C491.68 157.74 482.08 153.84 472.28 153.84C462.51 153.84 452.95 157.74 446.05 164.59C439.13 171.4 435.14 180.88 435.14 190.56Z" id="aaWMW85Rn"></path></defs><g><g><g><use xlink:href="#a316adomxT" opacity="1" fill="#ffffff" fill-opacity="1"></use><g><use xlink:href="#a316adomxT" opacity="1" fill-opacity="0" stroke="#000000" stroke-width="1" stroke-opacity="0"></use></g></g><g><use xlink:href="#a5spIX9t8" opacity="1" fill="#000000" fill-opacity="0"></use><g><use xlink:href="#a5spIX9t8" opacity="1" fill-opacity="0" stroke="#ffffff" stroke-width="1" stroke-opacity="0"></use></g></g><g><use xlink:href="#ew67skXlt" opacity="1" fill="#ffffff" fill-opacity="1"></use><g><use xlink:href="#ew67skXlt" opacity="1" fill-opacity="0" stroke="#000000" stroke-width="1" stroke-opacity="0"></use></g></g><g><use xlink:href="#b2eTJtl8SD" opacity="1" fill="#000000" fill-opacity="0"></use><g><use xlink:href="#b2eTJtl8SD" opacity="1" fill-opacity="0" stroke="#000000" stroke-width="1" stroke-opacity="0"></use></g></g><g><use xlink:href="#k1I31uwfXW" opacity="1" fill="#ffffff" fill-opacity="1"></use><g><use xlink:href="#k1I31uwfXW" opacity="1" fill-opacity="0" stroke="#000000" stroke-width="1" stroke-opacity="0"></use></g></g><g><use xlink:href="#aaWMW85Rn" opacity="1" fill="#000000" fill-opacity="0"></use><g><use xlink:href="#aaWMW85Rn" opacity="1" fill-opacity="0" stroke="#000000" stroke-width="1" stroke-opacity="0"></use></g></g></g></g></svg>